<svg xmlns="http://www.w3.org/2000/svg" xmlns:xlink="http://www.w3.org/1999/xlink" width="1920" zoomAndPan="magnify" viewBox="0 0 1440 809.999993" height="1080" preserveAspectRatio="xMidYMid meet" version="1.2"><g id="ee720e8563"><path style=" stroke:none;fill-rule:nonzero;fill:#ffebc2;fill-opacity:1;" d="M 120.09375 809.855469 L 24.265625 772.832031 L 0.125 674.882812 L 67.691406 539.90625 L 0.125 404.929688 L 60.105469 296.753906 L 0.125 134.976562 L 29.277344 35.328125 L 120.085938 0 L 211.324219 67.488281 L 360 0 L 456.003906 62.054688 L 599.917969 0 L 704.859375 67.488281 L 839.835938 0 L 934.507812 35.328125 L 1079.75 0 L 1193.382812 82.9375 L 1319.667969 0 L 1425.535156 35.328125 L 1439.625 134.976562 L 1396.308594 252.488281 L 1439.625 404.929688 L 1408 504.726562 L 1439.625 674.882812 L 1413.007812 773.667969 L 1319.671875 809.855469 L 1319.664062 809.855469 L 1223.445312 757.796875 L 1079.757812 809.855469 L 1079.746094 809.855469 L 968.746094 755.292969 L 839.839844 809.855469 L 839.828125 809.855469 L 724.902344 757.796875 L 599.921875 809.855469 L 599.914062 809.855469 L 501.933594 746.105469 C 501.933594 746.105469 365.179688 809.765625 360.015625 809.855469 L 359.988281 809.855469 C 354.917969 809.808594 258.089844 765.316406 258.089844 765.316406 C 258.089844 765.316406 123.75 808.710938 120.09375 809.855469 Z M 120.09375 809.855469 "/><path style=" stroke:none;fill-rule:nonzero;fill:#bdc5d7;fill-opacity:1;" d="M 479.960938 134.976562 L 599.917969 269.953125 L 479.960938 404.929688 L 599.917969 539.90625 L 479.960938 674.882812 L 599.917969 809.859375 L 360 809.859375 L 479.960938 674.882812 L 360 539.90625 L 479.960938 404.929688 L 360 269.953125 L 479.960938 134.976562 L 360 0 L 599.917969 0 Z M 1079.75 0 L 839.835938 0 L 959.792969 134.976562 L 839.835938 269.953125 L 959.792969 404.929688 L 839.835938 539.90625 L 959.792969 674.882812 L 839.835938 809.859375 L 1079.75 809.859375 L 959.792969 674.882812 L 1079.75 539.90625 L 959.792969 404.929688 L 1079.75 269.953125 L 959.792969 134.976562 Z M 0.125 134.976562 L 120.085938 0 L 0.125 0 Z M 1319.667969 0 L 1439.625 134.976562 L 1439.625 0 Z M 120.085938 269.953125 L 0.125 134.976562 L 0.125 404.929688 Z M 1319.667969 269.953125 L 1439.625 404.929688 L 1439.625 134.976562 Z M 0.125 809.859375 L 120.085938 809.859375 L 0.125 674.882812 Z M 1439.625 809.859375 L 1439.625 674.882812 L 1319.667969 809.859375 Z M 120.085938 539.90625 L 0.125 404.929688 L 0.125 674.882812 Z M 1319.667969 539.90625 L 1439.625 674.882812 L 1439.625 404.929688 Z M 1319.667969 539.90625 "/><path style=" stroke:none;fill-rule:nonzero;fill:#facdcc;fill-opacity:1;" d="M 240.042969 134.976562 L 360 269.953125 L 240.042969 404.929688 L 360 539.90625 L 240.042969 674.882812 L 360 809.859375 L 120.085938 809.859375 L 240.042969 674.882812 L 120.085938 539.90625 L 240.042969 404.929688 L 120.085938 269.953125 L 240.042969 134.976562 L 120.085938 0 L 360 0 Z M 839.835938 0 L 599.917969 0 L 719.875 134.976562 L 599.917969 269.953125 L 719.875 404.929688 L 599.917969 539.90625 L 719.875 674.882812 L 599.917969 809.859375 L 839.835938 809.859375 L 719.875 674.882812 L 839.835938 539.90625 L 719.875 404.929688 L 839.835938 269.953125 L 719.875 134.976562 Z M 1319.667969 269.953125 L 1199.710938 134.976562 L 1319.667969 0 L 1079.75 0 L 1199.710938 134.976562 L 1079.75 269.953125 L 1199.710938 404.929688 L 1079.75 539.90625 L 1199.710938 674.882812 L 1079.75 809.859375 L 1319.667969 809.859375 L 1199.710938 674.882812 L 1319.667969 539.90625 L 1199.710938 404.929688 Z M 1319.667969 269.953125 "/><path style=" stroke:none;fill-rule:nonzero;fill:#ed985f;fill-opacity:1;" d="M 121.691406 403.484375 L 120.066406 404.929688 L 121.691406 406.375 L 112.09375 417.171875 L 108.863281 414.304688 L 117.195312 404.929688 L 108.863281 395.554688 L 112.09375 392.6875 Z M 99.265625 425.101562 L 89.667969 435.902344 L 92.898438 438.769531 L 102.496094 427.972656 Z M 12.890625 522.292969 L 16.117188 525.160156 L 25.714844 514.359375 L 22.488281 511.492188 Z M 246.457031 265.988281 L 256.050781 255.1875 L 252.824219 252.320312 L 243.226562 263.121094 Z M 80.074219 446.699219 L 70.476562 457.5 L 73.703125 460.367188 L 83.300781 449.570312 Z M 41.683594 489.894531 L 32.085938 500.695312 L 35.3125 503.5625 L 44.910156 492.761719 Z M 265.648438 244.390625 L 275.246094 233.589844 L 272.019531 230.722656 L 262.421875 241.519531 Z M 60.878906 468.296875 L 51.28125 479.097656 L 54.507812 481.964844 L 64.105469 471.164062 Z M 454.367188 25.542969 L 457.597656 28.414062 L 467.195312 17.613281 L 463.964844 14.746094 Z M 396.785156 90.339844 L 400.011719 93.207031 L 409.609375 82.40625 L 406.382812 79.539062 Z M 377.589844 111.9375 L 380.816406 114.804688 L 390.414062 104.003906 L 387.1875 101.136719 Z M 415.980469 68.742188 L 419.207031 71.609375 L 428.804688 60.808594 L 425.574219 57.941406 Z M 304.039062 201.195312 L 313.636719 190.398438 L 310.410156 187.527344 L 300.808594 198.324219 Z M 284.84375 222.792969 L 294.441406 211.996094 L 291.214844 209.125 L 281.617188 219.921875 Z M 435.175781 47.140625 L 438.402344 50.011719 L 448 39.210938 L 444.773438 36.34375 Z M 323.234375 179.597656 L 332.832031 168.796875 L 329.601562 165.929688 L 320.007812 176.726562 Z M 342.429688 158 L 352.023438 147.199219 L 348.796875 144.332031 L 339.199219 155.132812 Z M 147.253906 371.109375 L 150.480469 373.976562 L 160.078125 363.179688 L 156.851562 360.308594 Z M 208.066406 309.183594 L 217.664062 298.382812 L 214.433594 295.515625 L 204.839844 306.316406 Z M 166.449219 349.511719 L 169.675781 352.378906 L 179.273438 341.582031 L 176.046875 338.710938 Z M 185.644531 327.914062 L 188.871094 330.78125 L 198.46875 319.980469 L 195.242188 317.113281 Z M 131.285156 395.574219 L 140.882812 384.777344 L 137.65625 381.90625 L 128.058594 392.707031 Z M 224.03125 284.71875 L 227.261719 287.585938 L 236.855469 276.785156 L 233.628906 273.917969 Z M 473.5625 3.945312 L 476.792969 6.816406 L 479.960938 3.25 L 483.128906 6.816406 L 486.355469 3.945312 L 482.847656 0 L 477.070312 0 Z M 6.523438 805.914062 L 3.296875 803.046875 L 0.125 806.609375 L 0.125 809.855469 L 3.019531 809.855469 Z M 120.152344 678.054688 L 116.925781 675.1875 L 107.457031 685.839844 L 110.683594 688.710938 Z M 44.398438 763.292969 L 41.171875 760.425781 L 31.703125 771.078125 L 34.929688 773.945312 Z M 258.960938 515.367188 L 262.191406 518.234375 L 271.660156 507.582031 L 268.433594 504.714844 Z M 82.277344 720.671875 L 79.050781 717.804688 L 69.578125 728.460938 L 72.808594 731.328125 Z M 63.339844 741.984375 L 60.109375 739.113281 L 50.640625 749.769531 L 53.871094 752.636719 Z M 290.597656 486.273438 L 287.371094 483.402344 L 277.902344 494.058594 L 281.128906 496.925781 Z M 12.765625 792.386719 L 15.992188 795.257812 L 25.460938 784.601562 L 22.234375 781.734375 Z M 309.535156 464.960938 L 306.308594 462.09375 L 296.839844 472.75 L 300.066406 475.617188 Z M 328.472656 443.652344 L 325.246094 440.785156 L 315.777344 451.441406 L 319.003906 454.308594 Z M 347.414062 422.34375 L 344.183594 419.476562 L 334.714844 430.128906 L 337.945312 433 Z M 101.214844 699.363281 L 97.988281 696.496094 L 88.519531 707.152344 L 91.746094 710.019531 Z M 382.0625 376.855469 L 372.59375 387.511719 L 375.820312 390.378906 L 385.289062 379.726562 Z M 438.875 312.929688 L 429.40625 323.582031 L 432.632812 326.453125 L 442.105469 315.796875 Z M 401 355.546875 L 391.53125 366.203125 L 394.757812 369.070312 L 404.226562 358.417969 Z M 249.492188 526.023438 L 240.023438 536.675781 L 243.25 539.546875 L 252.722656 528.890625 Z M 457.8125 291.621094 L 448.34375 302.273438 L 451.574219 305.144531 L 461.042969 294.488281 Z M 479.960938 273.160156 L 476.753906 270.308594 L 467.285156 280.964844 L 470.511719 283.832031 L 479.960938 273.203125 L 489.410156 283.835938 L 492.636719 280.964844 L 483.167969 270.3125 Z M 419.9375 334.238281 L 410.46875 344.894531 L 413.695312 347.761719 L 423.164062 337.105469 Z M 618.789062 110.492188 L 622.019531 113.359375 L 631.488281 102.703125 L 628.261719 99.835938 Z M 363.125 398.167969 L 360 401.679688 L 356.878906 398.167969 L 353.652344 401.035156 L 357.113281 404.929688 L 353.652344 408.820312 L 356.882812 411.691406 L 360 408.179688 L 363.121094 411.6875 L 366.347656 408.820312 L 362.890625 404.929688 L 366.351562 401.035156 Z M 656.667969 67.875 L 659.894531 70.742188 L 669.363281 60.085938 L 666.136719 57.21875 Z M 675.605469 46.5625 L 678.832031 49.433594 L 688.300781 38.777344 L 685.074219 35.910156 Z M 694.542969 25.253906 L 697.769531 28.121094 L 707.238281 17.46875 L 704.011719 14.601562 Z M 637.726562 89.183594 L 640.957031 92.050781 L 650.425781 81.394531 L 647.195312 78.527344 Z M 584.140625 155.976562 L 593.609375 145.324219 L 590.382812 142.453125 L 580.914062 153.109375 Z M 508.386719 241.214844 L 517.855469 230.558594 L 514.628906 227.691406 L 505.160156 238.347656 Z M 565.203125 177.285156 L 574.671875 166.632812 L 571.445312 163.765625 L 561.976562 174.417969 Z M 527.328125 219.90625 L 536.796875 209.25 L 533.566406 206.382812 L 524.097656 217.035156 Z M 135.863281 653.878906 L 126.394531 664.53125 L 129.621094 667.398438 L 139.09375 656.746094 Z M 489.449219 262.523438 L 498.917969 251.871094 L 495.691406 249 L 486.222656 259.65625 Z M 230.554688 547.332031 L 221.085938 557.984375 L 224.3125 560.855469 L 233.78125 550.203125 Z M 211.617188 568.640625 L 202.148438 579.292969 L 205.375 582.164062 L 214.84375 571.507812 Z M 173.738281 611.257812 L 164.269531 621.914062 L 167.496094 624.78125 L 176.96875 614.125 Z M 192.679688 589.949219 L 183.207031 600.605469 L 186.4375 603.472656 L 195.90625 592.816406 Z M 154.800781 632.566406 L 145.332031 643.222656 L 148.558594 646.089844 L 158.027344 635.4375 Z M 546.265625 198.597656 L 555.734375 187.941406 L 552.507812 185.074219 L 543.039062 195.726562 Z M 713.480469 3.945312 L 716.707031 6.816406 L 719.875 3.25 L 723.042969 6.816406 L 726.273438 3.945312 L 722.765625 0 L 716.988281 0 Z M 246.4375 805.914062 L 243.210938 803.046875 L 240.042969 806.609375 L 236.875 803.046875 L 233.648438 805.914062 L 237.152344 809.855469 L 242.933594 809.855469 Z M 574.632812 430.128906 L 577.859375 433 L 587.328125 422.34375 L 584.101562 419.476562 Z M 555.691406 451.441406 L 558.921875 454.308594 L 568.390625 443.652344 L 565.164062 440.785156 Z M 536.753906 472.75 L 539.980469 475.617188 L 549.453125 464.960938 L 546.222656 462.09375 Z M 858.707031 110.492188 L 861.933594 113.359375 L 871.402344 102.707031 L 868.175781 99.835938 Z M 284.316406 763.292969 L 281.085938 760.425781 L 271.617188 771.078125 L 274.847656 773.945312 Z M 915.523438 46.5625 L 918.75 49.433594 L 928.21875 38.777344 L 924.992188 35.910156 Z M 517.816406 494.058594 L 521.042969 496.925781 L 530.511719 486.273438 L 527.285156 483.402344 Z M 896.582031 67.875 L 899.808594 70.742188 L 909.28125 60.085938 L 906.050781 57.21875 Z M 479.960938 536.695312 L 483.167969 539.546875 L 492.636719 528.890625 L 489.410156 526.023438 L 479.960938 536.65625 L 470.511719 526.023438 L 467.28125 528.890625 L 476.75 539.546875 Z M 322.191406 720.671875 L 318.964844 717.804688 L 309.496094 728.460938 L 312.722656 731.328125 Z M 303.253906 741.984375 L 300.027344 739.113281 L 290.558594 749.769531 L 293.785156 752.636719 Z M 729.363281 262.527344 L 738.835938 251.871094 L 735.605469 249.003906 L 726.136719 259.65625 Z M 934.460938 25.253906 L 937.6875 28.121094 L 947.15625 17.46875 L 943.929688 14.601562 Z M 767.242188 219.90625 L 776.710938 209.253906 L 773.484375 206.382812 L 764.015625 217.039062 Z M 748.304688 241.214844 L 757.773438 230.5625 L 754.546875 227.691406 L 745.074219 238.347656 Z M 341.128906 699.363281 L 337.902344 696.496094 L 328.433594 707.152344 L 331.660156 710.019531 Z M 502.105469 518.234375 L 511.574219 507.582031 L 508.347656 504.714844 L 498.878906 515.367188 Z M 375.78125 653.878906 L 366.3125 664.53125 L 369.539062 667.398438 L 379.007812 656.746094 Z M 394.71875 632.570312 L 385.25 643.222656 L 388.476562 646.09375 L 397.945312 635.4375 Z M 413.65625 611.261719 L 404.1875 621.914062 L 407.414062 624.78125 L 416.882812 614.128906 Z M 719.875 273.160156 L 716.667969 270.3125 L 707.199219 280.964844 L 710.429688 283.835938 L 719.878906 273.203125 L 729.324219 283.832031 L 732.554688 280.964844 L 723.082031 270.308594 Z M 877.644531 89.183594 L 880.871094 92.050781 L 890.339844 81.394531 L 887.113281 78.527344 Z M 697.730469 291.621094 L 688.261719 302.277344 L 691.488281 305.144531 L 700.957031 294.488281 Z M 432.59375 589.949219 L 423.125 600.605469 L 426.351562 603.472656 L 435.824219 592.820312 Z M 470.46875 547.332031 L 461 557.988281 L 464.230469 560.855469 L 473.699219 550.199219 Z M 265.375 784.601562 L 262.148438 781.734375 L 252.679688 792.386719 L 255.90625 795.257812 Z M 451.53125 568.640625 L 442.0625 579.296875 L 445.292969 582.164062 L 454.757812 571.507812 Z M 621.976562 376.855469 L 612.507812 387.511719 L 615.734375 390.378906 L 625.207031 379.726562 Z M 678.792969 312.929688 L 669.324219 323.585938 L 672.550781 326.453125 L 682.019531 315.800781 Z M 786.179688 198.597656 L 795.648438 187.941406 L 792.421875 185.074219 L 782.953125 195.730469 Z M 659.855469 334.238281 L 650.386719 344.894531 L 653.613281 347.761719 L 663.082031 337.109375 Z M 603.039062 398.167969 L 599.917969 401.679688 L 596.796875 398.167969 L 593.570312 401.035156 L 597.03125 404.929688 L 593.570312 408.820312 L 596.796875 411.691406 L 599.917969 408.179688 L 603.039062 411.691406 L 606.265625 408.820312 L 602.808594 404.929688 L 606.265625 401.035156 Z M 640.914062 355.550781 L 631.445312 366.203125 L 634.675781 369.074219 L 644.144531 358.417969 Z M 824.058594 155.980469 L 833.527344 145.324219 L 830.296875 142.457031 L 820.828125 153.109375 Z M 805.117188 177.289062 L 814.589844 166.632812 L 811.359375 163.765625 L 801.890625 174.417969 Z M 953.398438 3.945312 L 956.625 6.816406 L 959.792969 3.25 L 962.960938 6.816406 L 966.1875 3.945312 L 962.683594 0 L 956.90625 0 Z M 486.355469 805.914062 L 483.128906 803.046875 L 479.960938 806.609375 L 476.792969 803.046875 L 473.566406 805.914062 L 477.070312 809.855469 L 482.851562 809.855469 Z M 710.390625 547.332031 L 700.917969 557.984375 L 704.148438 560.855469 L 713.617188 550.203125 Z M 653.574219 611.257812 L 644.105469 621.914062 L 647.332031 624.78125 L 656.800781 614.125 Z M 634.636719 632.566406 L 625.164062 643.222656 L 628.394531 646.089844 L 637.863281 635.4375 Z M 672.511719 589.949219 L 663.042969 600.605469 L 666.269531 603.472656 L 675.738281 592.816406 Z M 691.449219 568.640625 L 681.980469 579.292969 L 685.207031 582.164062 L 694.679688 571.507812 Z M 918.710938 312.929688 L 909.242188 323.582031 L 912.46875 326.453125 L 921.9375 315.796875 Z M 861.894531 376.855469 L 852.425781 387.511719 L 855.652344 390.378906 L 865.121094 379.726562 Z M 880.832031 355.546875 L 871.363281 366.203125 L 874.589844 369.070312 L 884.058594 358.417969 Z M 899.769531 334.238281 L 890.300781 344.894531 L 893.53125 347.761719 L 903 337.105469 Z M 937.648438 291.621094 L 928.179688 302.273438 L 931.40625 305.144531 L 940.875 294.488281 Z M 959.796875 273.160156 L 956.585938 270.308594 L 947.117188 280.964844 L 950.34375 283.832031 L 959.792969 273.203125 L 969.242188 283.835938 L 972.472656 280.964844 L 963.003906 270.3125 Z M 1117.5625 89.183594 L 1120.789062 92.050781 L 1130.261719 81.394531 L 1127.03125 78.527344 Z M 1136.5 67.875 L 1139.730469 70.742188 L 1149.199219 60.085938 L 1145.96875 57.21875 Z M 842.957031 398.167969 L 839.835938 401.679688 L 836.714844 398.167969 L 833.488281 401.035156 L 836.945312 404.929688 L 833.488281 408.820312 L 836.714844 411.691406 L 839.835938 408.179688 L 842.957031 411.691406 L 846.183594 408.820312 L 842.722656 404.929688 L 846.183594 401.035156 Z M 1098.625 110.492188 L 1101.851562 113.359375 L 1111.320312 102.703125 L 1108.09375 99.835938 Z M 1155.441406 46.5625 L 1158.667969 49.433594 L 1168.136719 38.777344 L 1164.910156 35.910156 Z M 1174.378906 25.253906 L 1177.605469 28.121094 L 1187.074219 17.46875 L 1183.847656 14.601562 Z M 795.609375 451.441406 L 798.835938 454.308594 L 808.308594 443.652344 L 805.078125 440.785156 Z M 719.878906 536.695312 L 723.082031 539.546875 L 732.554688 528.890625 L 729.328125 526.019531 L 719.875 536.652344 L 710.425781 526.023438 L 707.199219 528.890625 L 716.667969 539.546875 Z M 776.671875 472.75 L 779.898438 475.617188 L 789.367188 464.960938 L 786.140625 462.09375 Z M 738.796875 515.367188 L 742.023438 518.234375 L 751.492188 507.582031 L 748.265625 504.714844 Z M 757.734375 494.058594 L 760.960938 496.925781 L 770.429688 486.273438 L 767.203125 483.402344 Z M 969.285156 262.523438 L 978.753906 251.871094 L 975.523438 249 L 966.054688 259.65625 Z M 814.546875 430.128906 L 817.777344 433 L 827.246094 422.34375 L 824.019531 419.476562 Z M 615.699219 653.878906 L 606.230469 664.53125 L 609.457031 667.398438 L 618.925781 656.746094 Z M 543.171875 741.984375 L 539.945312 739.113281 L 530.476562 749.769531 L 533.703125 752.636719 Z M 562.109375 720.671875 L 558.882812 717.804688 L 549.414062 728.460938 L 552.640625 731.328125 Z M 581.050781 699.363281 L 577.820312 696.496094 L 568.351562 707.152344 L 571.578125 710.019531 Z M 988.222656 241.214844 L 997.691406 230.558594 L 994.464844 227.691406 L 984.992188 238.347656 Z M 1045.035156 177.285156 L 1054.507812 166.632812 L 1051.277344 163.765625 L 1041.808594 174.417969 Z M 524.234375 763.292969 L 521.007812 760.425781 L 511.535156 771.078125 L 514.765625 773.945312 Z M 1026.097656 198.597656 L 1035.566406 187.941406 L 1032.339844 185.074219 L 1022.871094 195.726562 Z M 1063.976562 155.976562 L 1073.445312 145.324219 L 1070.21875 142.453125 L 1060.746094 153.109375 Z M 505.296875 784.601562 L 502.066406 781.734375 L 492.597656 792.386719 L 495.824219 795.257812 Z M 1007.160156 219.90625 L 1016.628906 209.25 L 1013.402344 206.382812 L 1003.933594 217.035156 Z M 1193.3125 3.945312 L 1196.542969 6.816406 L 1199.710938 3.25 L 1202.878906 6.816406 L 1206.105469 3.945312 L 1202.597656 0 L 1196.820312 0 Z M 726.273438 805.914062 L 723.042969 803.046875 L 719.875 806.609375 L 716.707031 803.046875 L 713.480469 805.914062 L 716.984375 809.855469 L 722.765625 809.855469 Z M 855.613281 653.878906 L 846.144531 664.53125 L 849.371094 667.398438 L 858.839844 656.746094 Z M 1067.164062 422.34375 L 1063.9375 419.476562 L 1054.464844 430.128906 L 1057.695312 433 Z M 1313.359375 145.324219 L 1310.132812 142.457031 L 1300.664062 153.109375 L 1303.890625 155.980469 Z M 1284.953125 177.289062 L 1294.421875 166.632812 L 1291.195312 163.765625 L 1281.726562 174.417969 Z M 1139.6875 334.238281 L 1130.21875 344.894531 L 1133.449219 347.761719 L 1142.914062 337.109375 Z M 1158.625 312.929688 L 1149.15625 323.585938 L 1152.382812 326.453125 L 1161.851562 315.800781 Z M 1196.5 270.3125 L 1187.03125 280.964844 L 1190.261719 283.835938 L 1199.730469 273.179688 Z M 1177.5625 291.621094 L 1168.09375 302.277344 L 1171.320312 305.144531 L 1180.792969 294.488281 Z M 1247.074219 219.90625 L 1256.542969 209.253906 L 1253.316406 206.382812 L 1243.847656 217.039062 Z M 1120.75 355.550781 L 1111.28125 366.203125 L 1114.507812 369.074219 L 1123.980469 358.417969 Z M 1082.875 398.167969 L 1079.753906 401.679688 L 1076.628906 398.167969 L 1073.402344 401.035156 L 1076.863281 404.929688 L 1073.40625 408.820312 L 1076.632812 411.691406 L 1079.75 408.179688 L 1082.871094 411.691406 L 1086.097656 408.820312 L 1082.640625 404.929688 L 1086.101562 401.035156 Z M 1101.8125 376.855469 L 1092.34375 387.511719 L 1095.570312 390.378906 L 1105.039062 379.726562 Z M 1266.015625 198.597656 L 1275.484375 187.941406 L 1272.253906 185.074219 L 1262.785156 195.730469 Z M 931.367188 568.640625 L 921.898438 579.296875 L 925.125 582.164062 L 934.59375 571.507812 Z M 1029.285156 464.960938 L 1026.058594 462.09375 L 1016.589844 472.75 L 1019.816406 475.617188 Z M 874.550781 632.570312 L 865.082031 643.222656 L 868.308594 646.09375 L 877.78125 635.4375 Z M 893.492188 611.261719 L 884.019531 621.914062 L 887.25 624.78125 L 896.71875 614.128906 Z M 950.304688 547.332031 L 940.835938 557.988281 L 944.0625 560.855469 L 953.53125 550.199219 Z M 912.429688 589.949219 L 902.960938 600.605469 L 906.1875 603.472656 L 915.65625 592.820312 Z M 1228.136719 241.214844 L 1237.605469 230.5625 L 1234.378906 227.691406 L 1224.910156 238.347656 Z M 981.941406 518.234375 L 991.410156 507.582031 L 988.183594 504.714844 L 978.714844 515.367188 Z M 1010.347656 486.273438 L 1007.121094 483.402344 L 997.652344 494.058594 L 1000.878906 496.925781 Z M 959.792969 536.695312 L 963.003906 539.546875 L 972.472656 528.890625 L 969.242188 526.023438 L 959.792969 536.65625 L 950.34375 526.023438 L 947.113281 528.890625 L 956.582031 539.546875 Z M 1209.199219 262.527344 L 1218.667969 251.871094 L 1215.441406 249.003906 L 1205.972656 259.65625 Z M 1048.226562 443.652344 L 1044.996094 440.785156 L 1035.527344 451.441406 L 1038.757812 454.308594 Z M 783.085938 741.984375 L 779.859375 739.113281 L 770.390625 749.769531 L 773.617188 752.636719 Z M 1351.238281 102.707031 L 1348.007812 99.835938 L 1338.539062 110.492188 L 1341.765625 113.359375 Z M 764.148438 763.292969 L 760.921875 760.425781 L 751.453125 771.078125 L 754.679688 773.945312 Z M 1319.601562 131.800781 L 1322.828125 134.667969 L 1332.296875 124.015625 L 1329.070312 121.148438 Z M 745.210938 784.601562 L 741.984375 781.734375 L 732.515625 792.386719 L 735.742188 795.257812 Z M 820.964844 699.363281 L 817.738281 696.496094 L 808.265625 707.152344 L 811.496094 710.019531 Z M 802.027344 720.671875 L 798.796875 717.804688 L 789.328125 728.460938 L 792.558594 731.328125 Z M 1395.355469 46.5625 L 1398.582031 49.433594 L 1408.050781 38.777344 L 1404.824219 35.910156 Z M 1357.476562 89.183594 L 1360.707031 92.050781 L 1370.175781 81.394531 L 1366.949219 78.527344 Z M 1426.992188 17.46875 L 1423.761719 14.601562 L 1414.292969 25.253906 L 1417.519531 28.121094 Z M 1389.113281 60.085938 L 1385.886719 57.21875 L 1376.417969 67.875 L 1379.644531 70.742188 Z M 1433.230469 3.945312 L 1436.460938 6.816406 L 1439.625 3.25 L 1439.625 0 L 1436.738281 0 Z M 966.1875 805.914062 L 962.960938 803.046875 L 959.792969 806.609375 L 956.625 803.046875 L 953.398438 805.914062 L 956.902344 809.855469 L 962.683594 809.855469 Z M 1097.324219 651.859375 L 1087.726562 662.660156 L 1090.953125 665.527344 L 1100.550781 654.726562 Z M 1042.96875 719.523438 L 1039.738281 716.652344 L 1030.140625 727.449219 L 1033.367188 730.320312 Z M 1023.773438 741.121094 L 1020.546875 738.25 L 1010.945312 749.050781 L 1014.175781 751.917969 Z M 1116.519531 630.261719 L 1106.921875 641.058594 L 1110.148438 643.929688 L 1119.746094 633.132812 Z M 1388.472656 330.765625 L 1385.246094 327.894531 L 1375.644531 338.691406 L 1378.875 341.5625 Z M 1062.160156 697.921875 L 1058.933594 695.054688 L 1049.339844 705.855469 L 1052.566406 708.722656 Z M 1359.679688 363.160156 L 1369.277344 352.363281 L 1366.050781 349.492188 L 1356.453125 360.289062 Z M 1135.714844 608.664062 L 1126.117188 619.460938 L 1129.34375 622.332031 L 1138.941406 611.535156 Z M 1350.082031 373.957031 L 1346.855469 371.089844 L 1337.257812 381.886719 L 1340.484375 384.757812 Z M 1426.859375 287.570312 L 1423.632812 284.699219 L 1414.035156 295.496094 L 1417.261719 298.367188 Z M 1206.121094 535.941406 L 1215.71875 525.140625 L 1212.492188 522.273438 L 1202.894531 533.070312 Z M 1398.066406 319.964844 L 1407.667969 309.167969 L 1404.4375 306.296875 L 1394.839844 317.09375 Z M 1234.914062 503.542969 L 1231.6875 500.671875 L 1222.089844 511.472656 L 1225.316406 514.34375 Z M 1292.5 438.75 L 1289.269531 435.882812 L 1279.671875 446.679688 L 1282.898438 449.550781 Z M 1273.304688 460.351562 L 1270.078125 457.480469 L 1260.476562 468.28125 L 1263.707031 471.148438 Z M 1254.109375 481.945312 L 1250.882812 479.078125 L 1241.285156 489.875 L 1244.511719 492.746094 Z M 985.386719 784.316406 L 982.15625 781.445312 L 972.558594 792.246094 L 975.785156 795.113281 Z M 1004.578125 762.714844 L 1001.351562 759.847656 L 991.753906 770.644531 L 994.980469 773.515625 Z M 1154.910156 587.066406 L 1145.308594 597.863281 L 1148.539062 600.734375 L 1158.136719 589.9375 Z M 1193.296875 543.871094 L 1183.703125 554.667969 L 1186.929688 557.539062 L 1196.523438 546.738281 Z M 1174.101562 565.46875 L 1164.507812 576.265625 L 1167.734375 579.136719 L 1177.332031 568.335938 Z M 1302.097656 427.953125 L 1311.691406 417.152344 L 1308.464844 414.285156 L 1298.871094 425.085938 Z M 1206.105469 805.914062 L 1202.878906 803.046875 L 1199.710938 806.609375 L 1196.542969 803.046875 L 1193.3125 805.914062 L 1196.820312 809.855469 L 1202.601562 809.855469 Z M 1242.960938 764.4375 L 1239.734375 761.570312 L 1230.519531 771.9375 L 1233.75 774.808594 Z M 1261.390625 743.703125 L 1258.160156 740.835938 L 1248.949219 751.203125 L 1252.175781 754.070312 Z M 1279.820312 722.972656 L 1276.589844 720.101562 L 1267.378906 730.46875 L 1270.605469 733.335938 Z M 1224.53125 785.175781 L 1221.304688 782.308594 L 1212.09375 792.675781 L 1215.320312 795.542969 Z M 1298.25 702.238281 L 1295.019531 699.367188 L 1285.804688 709.730469 L 1289.03125 712.601562 Z M 1424.015625 554.21875 L 1414.800781 564.585938 L 1418.03125 567.457031 L 1427.242188 557.089844 Z M 1331.875 657.894531 L 1322.660156 668.261719 L 1325.886719 671.132812 L 1335.105469 660.765625 Z M 1350.304688 637.160156 L 1341.089844 647.527344 L 1344.316406 650.394531 L 1353.53125 640.03125 Z M 1387.160156 595.691406 L 1377.945312 606.058594 L 1381.175781 608.925781 L 1390.386719 598.558594 Z M 1405.589844 574.957031 L 1396.375 585.320312 L 1399.601562 588.191406 L 1408.816406 577.824219 Z M 1368.734375 616.425781 L 1359.515625 626.792969 L 1362.746094 629.664062 L 1371.960938 619.296875 Z M 1316.675781 681.5 L 1313.445312 678.632812 L 1304.234375 689 L 1307.460938 691.867188 Z M 107.878906 151.960938 L 117.09375 141.59375 L 113.863281 138.726562 L 104.652344 149.09375 Z M 89.449219 172.699219 L 98.664062 162.328125 L 95.4375 159.460938 L 86.222656 169.828125 Z M 71.019531 193.433594 L 80.234375 183.066406 L 77.007812 180.195312 L 67.792969 190.566406 Z M 15.738281 255.640625 L 24.953125 245.269531 L 21.722656 242.402344 L 12.507812 252.769531 Z M 52.59375 214.167969 L 61.808594 203.800781 L 58.578125 200.929688 L 49.363281 211.296875 Z M 34.164062 234.902344 L 43.378906 224.535156 L 40.152344 221.664062 L 30.9375 232.035156 Z M 141.507812 107.621094 L 144.734375 110.492188 L 153.949219 100.125 L 150.722656 97.253906 Z M 159.933594 86.886719 L 163.164062 89.757812 L 172.378906 79.386719 L 169.148438 76.519531 Z M 123.078125 128.359375 L 126.304688 131.226562 L 135.519531 120.859375 L 132.292969 117.988281 Z M 196.792969 45.417969 L 200.019531 48.285156 L 209.234375 37.917969 L 206.007812 35.050781 Z M 178.363281 66.152344 L 181.589844 69.019531 L 190.804688 58.652344 L 187.578125 55.785156 Z M 215.222656 24.679688 L 218.449219 27.550781 L 227.660156 17.179688 L 224.433594 14.3125 Z M 233.648438 3.945312 L 236.875 6.816406 L 240.042969 3.25 L 243.210938 6.816406 L 246.4375 3.945312 L 242.933594 0 L 237.15625 0 Z M 1439.625 536.65625 L 1436.460938 533.089844 L 1433.230469 535.957031 L 1436.738281 539.90625 L 1433.230469 543.851562 L 1436.460938 546.71875 L 1439.625 543.15625 Z M 1423.632812 525.164062 L 1426.859375 522.292969 L 1417.261719 511.492188 L 1414.035156 514.359375 Z M 1308.464844 395.574219 L 1311.691406 392.707031 L 1302.097656 381.90625 L 1298.871094 384.777344 Z M 1289.269531 373.976562 L 1292.5 371.105469 L 1282.898438 360.308594 L 1279.671875 363.179688 Z M 1250.882812 330.78125 L 1254.109375 327.910156 L 1244.511719 317.113281 L 1241.285156 319.980469 Z M 1270.078125 352.378906 L 1273.304688 349.511719 L 1263.707031 338.710938 L 1260.476562 341.582031 Z M 1010.949219 60.8125 L 1020.546875 71.609375 L 1023.773438 68.742188 L 1014.175781 57.941406 Z M 985.386719 25.542969 L 975.785156 14.746094 L 972.558594 17.617188 L 982.15625 28.414062 Z M 991.753906 39.214844 L 1001.351562 50.011719 L 1004.578125 47.140625 L 994.980469 36.34375 Z M 1212.492188 287.585938 L 1215.71875 284.71875 L 1206.121094 273.917969 L 1202.894531 276.785156 Z M 1079.75 131.726562 L 1071.761719 122.734375 L 1068.53125 125.601562 L 1078.128906 136.402344 L 1081.355469 133.535156 L 1080.300781 132.347656 L 1082.914062 134.667969 L 1092.382812 124.011719 L 1089.15625 121.144531 Z M 1049.339844 104.003906 L 1058.933594 114.804688 L 1062.160156 111.9375 L 1052.566406 101.136719 Z M 1030.140625 82.40625 L 1039.738281 93.207031 L 1042.96875 90.335938 L 1033.371094 79.539062 Z M 1231.683594 309.183594 L 1234.914062 306.316406 L 1225.316406 295.515625 L 1222.089844 298.382812 Z M 1164.503906 233.59375 L 1174.101562 244.390625 L 1177.332031 241.519531 L 1167.730469 230.722656 Z M 1145.308594 211.996094 L 1154.910156 222.792969 L 1158.136719 219.921875 L 1148.539062 209.125 Z M 1183.699219 255.1875 L 1193.296875 265.988281 L 1196.523438 263.121094 L 1186.929688 252.320312 Z M 1404.4375 503.5625 L 1407.667969 500.695312 L 1398.066406 489.894531 L 1394.839844 492.765625 Z M 1327.660156 417.171875 L 1330.886719 414.304688 L 1322.558594 404.929688 L 1330.886719 395.554688 L 1327.660156 392.6875 L 1318.0625 403.488281 L 1319.6875 404.929688 L 1318.0625 406.375 Z M 1106.921875 168.800781 L 1116.519531 179.597656 L 1119.746094 176.726562 L 1110.148438 165.929688 Z M 1126.117188 190.398438 L 1135.714844 201.195312 L 1138.941406 198.324219 L 1129.34375 187.527344 Z M 1087.726562 147.199219 L 1097.324219 158 L 1100.550781 155.132812 L 1090.953125 144.332031 Z M 1385.246094 481.96875 L 1388.472656 479.097656 L 1378.875 468.296875 L 1375.644531 471.164062 Z M 1366.050781 460.367188 L 1369.277344 457.5 L 1359.679688 446.699219 L 1356.453125 449.570312 Z M 1346.855469 438.769531 L 1350.082031 435.902344 L 1340.484375 425.101562 L 1337.257812 427.972656 Z M 1439.625 806.609375 L 1436.460938 803.046875 L 1433.230469 805.914062 L 1436.734375 809.855469 L 1439.625 809.855469 Z M 921.898438 230.5625 L 931.367188 241.214844 L 934.59375 238.347656 L 925.125 227.691406 Z M 1319.601562 678.054688 L 1329.070312 688.710938 L 1332.296875 685.839844 L 1322.828125 675.1875 Z M 846.144531 145.324219 L 855.613281 155.980469 L 858.839844 153.109375 L 849.371094 142.457031 Z M 808.265625 102.707031 L 817.738281 113.359375 L 820.964844 110.492188 L 811.496094 99.835938 Z M 770.390625 60.085938 L 779.859375 70.742188 L 783.085938 67.875 L 773.617188 57.21875 Z M 1338.539062 699.363281 L 1348.007812 710.019531 L 1351.238281 707.152344 L 1341.769531 696.496094 Z M 789.328125 81.394531 L 798.796875 92.050781 L 802.027344 89.183594 L 792.558594 78.527344 Z M 884.019531 187.941406 L 893.492188 198.597656 L 896.71875 195.730469 L 887.25 185.074219 Z M 902.960938 209.253906 L 912.429688 219.90625 L 915.65625 217.039062 L 906.1875 206.382812 Z M 1395.355469 763.292969 L 1404.824219 773.945312 L 1408.050781 771.078125 L 1398.582031 760.425781 Z M 865.082031 166.632812 L 874.550781 177.289062 L 877.78125 174.417969 L 868.308594 163.765625 Z M 839.835938 131.726562 L 830.433594 121.148438 L 827.207031 124.015625 L 836.675781 134.667969 L 839.835938 131.859375 L 842.996094 134.667969 L 852.464844 124.015625 L 849.238281 121.148438 Z M 1376.417969 741.984375 L 1385.886719 752.636719 L 1389.113281 749.769531 L 1379.644531 739.113281 Z M 1092.339844 422.34375 L 1101.808594 433 L 1105.039062 430.128906 L 1095.566406 419.476562 Z M 1357.476562 720.671875 L 1366.949219 731.328125 L 1370.175781 728.460938 L 1360.707031 717.804688 Z M 1414.292969 784.601562 L 1423.761719 795.257812 L 1426.992188 792.386719 L 1417.519531 781.734375 Z M 1209.199219 547.332031 L 1205.972656 550.199219 L 1215.441406 560.855469 L 1218.667969 557.988281 Z M 1190.261719 526.023438 L 1187.03125 528.890625 L 1196.503906 539.546875 L 1199.730469 536.675781 Z M 1237.605469 579.296875 L 1228.136719 568.640625 L 1224.910156 571.507812 L 1234.378906 582.164062 Z M 1275.484375 621.914062 L 1266.015625 611.261719 L 1262.785156 614.128906 L 1272.253906 624.78125 Z M 1256.542969 600.605469 L 1247.074219 589.949219 L 1243.847656 592.820312 L 1253.316406 603.472656 Z M 1111.277344 443.652344 L 1120.75 454.308594 L 1123.976562 451.441406 L 1114.507812 440.785156 Z M 1294.421875 643.222656 L 1284.953125 632.570312 L 1281.726562 635.4375 L 1291.195312 646.09375 Z M 1168.09375 507.582031 L 1177.5625 518.234375 L 1180.792969 515.367188 L 1171.320312 504.714844 Z M 1130.21875 464.960938 L 1139.6875 475.617188 L 1142.914062 472.75 L 1133.445312 462.09375 Z M 1149.15625 486.273438 L 1158.625 496.925781 L 1161.851562 494.058594 L 1152.382812 483.402344 Z M 1313.359375 664.53125 L 1303.890625 653.878906 L 1300.664062 656.746094 L 1310.132812 667.398438 Z M 1038.753906 355.550781 L 1035.527344 358.417969 L 1044.996094 369.074219 L 1048.222656 366.203125 Z M 978.714844 294.488281 L 988.183594 305.144531 L 991.410156 302.277344 L 981.941406 291.621094 Z M 732.515625 17.46875 L 741.984375 28.121094 L 745.210938 25.253906 L 735.742188 14.601562 Z M 1019.816406 334.238281 L 1016.585938 337.109375 L 1026.054688 347.761719 L 1029.285156 344.894531 Z M 1057.691406 376.855469 L 1054.464844 379.726562 L 1063.933594 390.378906 L 1067.160156 387.511719 Z M 751.453125 38.777344 L 760.921875 49.433594 L 764.148438 46.5625 L 754.679688 35.910156 Z M 940.835938 251.871094 L 950.304688 262.527344 L 953.53125 259.65625 L 944.0625 249.003906 Z M 1000.875 312.929688 L 997.648438 315.800781 L 1007.117188 326.453125 L 1010.34375 323.585938 Z M 700.917969 251.871094 L 710.386719 262.523438 L 713.613281 259.65625 L 704.144531 249 Z M 505.292969 25.253906 L 495.824219 14.601562 L 492.597656 17.46875 L 502.066406 28.121094 Z M 530.472656 60.085938 L 539.941406 70.742188 L 543.171875 67.875 L 533.703125 57.21875 Z M 511.535156 38.777344 L 521.003906 49.433594 L 524.230469 46.5625 L 514.761719 35.910156 Z M 599.917969 131.726562 L 590.515625 121.144531 L 587.289062 124.011719 L 596.757812 134.667969 L 599.917969 131.859375 L 603.078125 134.667969 L 612.550781 124.011719 L 609.320312 121.144531 Z M 625.164062 166.632812 L 634.632812 177.285156 L 637.859375 174.417969 L 628.390625 163.765625 Z M 568.347656 102.703125 L 577.820312 113.359375 L 581.046875 110.492188 L 571.578125 99.835938 Z M 549.414062 81.394531 L 558.882812 92.050781 L 562.109375 89.183594 L 552.640625 78.527344 Z M 606.226562 145.324219 L 615.695312 155.976562 L 618.921875 153.109375 L 609.453125 142.453125 Z M 1054.503906 643.222656 L 1045.035156 632.566406 L 1041.804688 635.4375 L 1051.277344 646.089844 Z M 1035.566406 621.914062 L 1026.09375 611.257812 L 1022.867188 614.125 L 1032.335938 624.78125 Z M 928.179688 507.582031 L 937.644531 518.234375 L 940.871094 515.367188 L 931.40625 504.714844 Z M 978.75 557.984375 L 969.28125 547.332031 L 966.054688 550.203125 L 975.523438 560.855469 Z M 909.242188 486.273438 L 918.710938 496.925781 L 921.9375 494.058594 L 912.46875 483.402344 Z M 1073.441406 664.53125 L 1063.972656 653.878906 L 1060.746094 656.746094 L 1070.214844 667.398438 Z M 760.960938 312.929688 L 757.734375 315.796875 L 767.203125 326.453125 L 770.429688 323.582031 Z M 852.425781 422.34375 L 861.894531 433 L 865.121094 430.128906 L 855.652344 419.476562 Z M 871.363281 443.652344 L 880.832031 454.308594 L 884.0625 451.441406 L 874.589844 440.785156 Z M 890.300781 464.960938 L 899.769531 475.617188 L 903 472.75 L 893.53125 462.09375 Z M 1016.625 600.605469 L 1007.15625 589.949219 L 1003.929688 592.816406 L 1013.398438 603.472656 Z M 779.898438 334.238281 L 776.671875 337.105469 L 786.140625 347.761719 L 789.367188 344.894531 Z M 997.6875 579.292969 L 988.21875 568.640625 L 984.992188 571.507812 L 994.460938 582.164062 Z M 742.023438 291.621094 L 738.796875 294.488281 L 748.265625 305.144531 L 751.492188 302.273438 Z M 1149.195312 749.769531 L 1139.726562 739.113281 L 1136.5 741.984375 L 1145.96875 752.636719 Z M 1130.257812 728.460938 L 1120.789062 717.804688 L 1117.558594 720.671875 L 1127.03125 731.328125 Z M 644.101562 187.941406 L 653.570312 198.597656 L 656.800781 195.726562 L 647.332031 185.074219 Z M 1111.320312 707.152344 L 1101.847656 696.496094 L 1098.621094 699.363281 L 1108.089844 710.019531 Z M 798.835938 355.546875 L 795.609375 358.417969 L 805.078125 369.070312 L 808.308594 366.203125 Z M 1079.75 678.132812 L 1089.152344 688.710938 L 1092.378906 685.839844 L 1082.910156 675.1875 L 1080.332031 677.480469 L 1081.355469 676.324219 L 1078.128906 673.457031 L 1068.53125 684.257812 L 1071.761719 687.125 Z M 681.980469 230.558594 L 691.449219 241.214844 L 694.675781 238.347656 L 685.207031 227.691406 Z M 663.042969 209.25 L 672.511719 219.90625 L 675.738281 217.039062 L 666.269531 206.382812 Z M 817.777344 376.855469 L 814.546875 379.726562 L 824.019531 390.378906 L 827.246094 387.511719 Z M 1187.070312 792.386719 L 1177.601562 781.734375 L 1174.375 784.601562 L 1183.84375 795.257812 Z M 1168.132812 771.078125 L 1158.664062 760.425781 L 1155.4375 763.292969 L 1164.90625 773.945312 Z M 328.433594 102.707031 L 337.902344 113.359375 L 341.128906 110.492188 L 331.660156 99.835938 Z M 309.492188 81.394531 L 318.964844 92.050781 L 322.191406 89.183594 L 312.722656 78.527344 Z M 360 131.726562 L 350.597656 121.144531 L 347.371094 124.015625 L 356.839844 134.667969 L 359.429688 132.371094 L 358.394531 133.53125 L 361.621094 136.402344 L 371.222656 125.601562 L 367.992188 122.734375 Z M 738.835938 557.988281 L 729.363281 547.332031 L 726.136719 550.199219 L 735.605469 560.855469 Z M 795.648438 621.914062 L 786.179688 611.261719 L 782.953125 614.128906 L 792.421875 624.78125 Z M 814.589844 643.222656 L 805.117188 632.570312 L 801.890625 635.4375 L 811.359375 646.09375 Z M 757.773438 579.296875 L 748.304688 568.640625 L 745.074219 571.507812 L 754.546875 582.164062 Z M 290.554688 60.085938 L 300.023438 70.742188 L 303.253906 67.875 L 293.78125 57.21875 Z M 271.617188 38.777344 L 281.085938 49.433594 L 284.3125 46.5625 L 274.84375 35.910156 Z M 265.375 25.253906 L 255.90625 14.601562 L 252.679688 17.46875 L 262.148438 28.121094 Z M 833.527344 664.53125 L 824.058594 653.878906 L 820.828125 656.746094 L 830.296875 667.398438 Z M 776.710938 600.605469 L 767.242188 589.949219 L 764.015625 592.820312 L 773.484375 603.472656 Z M 404.1875 187.941406 L 413.65625 198.597656 L 416.882812 195.730469 L 407.414062 185.074219 Z M 631.445312 443.652344 L 640.917969 454.308594 L 644.144531 451.441406 L 634.675781 440.785156 Z M 612.507812 422.34375 L 621.976562 433 L 625.207031 430.128906 L 615.734375 419.476562 Z M 498.878906 294.488281 L 508.347656 305.144531 L 511.574219 302.277344 L 502.105469 291.621094 Z M 521.042969 312.929688 L 517.816406 315.800781 L 527.285156 326.453125 L 530.511719 323.585938 Z M 366.308594 145.324219 L 375.777344 155.980469 L 379.007812 153.109375 L 369.535156 142.457031 Z M 669.324219 486.273438 L 678.792969 496.925781 L 682.019531 494.058594 L 672.550781 483.402344 Z M 539.980469 334.238281 L 536.753906 337.109375 L 546.222656 347.761719 L 549.453125 344.894531 Z M 650.386719 464.960938 L 659.855469 475.617188 L 663.082031 472.75 L 653.613281 462.09375 Z M 385.246094 166.632812 L 394.714844 177.289062 L 397.945312 174.417969 L 388.476562 163.765625 Z M 688.261719 507.582031 L 697.730469 518.234375 L 700.957031 515.367188 L 691.488281 504.714844 Z M 839.835938 678.128906 L 849.238281 688.710938 L 852.464844 685.839844 L 842.996094 675.1875 L 839.835938 677.996094 L 836.675781 675.1875 L 827.207031 685.839844 L 830.433594 688.710938 Z M 558.921875 355.550781 L 555.691406 358.417969 L 565.164062 369.074219 L 568.390625 366.203125 Z M 947.15625 792.386719 L 937.6875 781.734375 L 934.460938 784.601562 L 943.929688 795.257812 Z M 909.28125 749.769531 L 899.808594 739.113281 L 896.582031 741.984375 L 906.050781 752.636719 Z M 871.402344 707.152344 L 861.933594 696.496094 L 858.707031 699.363281 L 868.175781 710.019531 Z M 890.339844 728.460938 L 880.871094 717.804688 L 877.644531 720.671875 L 887.113281 731.328125 Z M 928.21875 771.078125 L 918.75 760.425781 L 915.519531 763.292969 L 924.992188 773.945312 Z M 577.859375 376.855469 L 574.632812 379.726562 L 584.101562 390.378906 L 587.328125 387.511719 Z M 461 251.871094 L 470.46875 262.527344 L 473.699219 259.65625 L 464.230469 249.003906 Z M 423.125 209.253906 L 432.59375 219.90625 L 435.820312 217.039062 L 426.351562 206.382812 Z M 442.0625 230.5625 L 451.53125 241.214844 L 454.757812 238.347656 L 445.289062 227.691406 Z M 707.238281 792.386719 L 697.769531 781.734375 L 694.542969 784.601562 L 704.011719 795.257812 Z M 688.300781 771.078125 L 678.832031 760.425781 L 675.601562 763.292969 L 685.070312 773.945312 Z M 669.363281 749.769531 L 659.890625 739.113281 L 656.664062 741.984375 L 666.132812 752.636719 Z M 599.917969 678.132812 L 609.320312 688.710938 L 612.546875 685.839844 L 603.078125 675.1875 L 599.917969 677.992188 L 596.757812 675.1875 L 587.289062 685.839844 L 590.519531 688.710938 Z M 631.484375 707.152344 L 622.015625 696.496094 L 618.789062 699.363281 L 628.257812 710.019531 Z M 650.421875 728.460938 L 640.953125 717.804688 L 637.726562 720.671875 L 647.195312 731.328125 Z M 183.207031 209.25 L 192.675781 219.90625 L 195.90625 217.039062 L 186.433594 206.382812 Z M 120.152344 131.800781 L 110.679688 121.144531 L 107.453125 124.011719 L 116.921875 134.667969 Z M 429.40625 486.273438 L 438.875 496.925781 L 442.101562 494.058594 L 432.632812 483.402344 Z M 448.34375 507.582031 L 457.8125 518.234375 L 461.039062 515.367188 L 451.570312 504.714844 Z M 44.398438 46.5625 L 34.929688 35.910156 L 31.703125 38.777344 L 41.171875 49.433594 Z M 82.273438 89.183594 L 72.804688 78.527344 L 69.578125 81.394531 L 79.046875 92.050781 Z M 63.335938 67.875 L 53.867188 57.21875 L 50.640625 60.085938 L 60.109375 70.742188 Z M 101.210938 110.492188 L 91.742188 99.835938 L 88.515625 102.703125 L 97.984375 113.359375 Z M 337.941406 376.855469 L 334.714844 379.726562 L 344.183594 390.378906 L 347.410156 387.511719 Z M 126.390625 145.324219 L 135.863281 155.976562 L 139.089844 153.109375 L 129.621094 142.453125 Z M 391.527344 443.652344 L 400.996094 454.308594 L 404.226562 451.441406 L 394.757812 440.785156 Z M 249.492188 283.832031 L 252.71875 280.964844 L 243.25 270.308594 L 240.023438 273.179688 Z M 410.46875 464.960938 L 419.9375 475.617188 L 423.164062 472.75 L 413.695312 462.09375 Z M 372.589844 422.34375 L 382.058594 433 L 385.289062 430.128906 L 375.816406 419.476562 Z M 300.066406 334.238281 L 296.835938 337.105469 L 306.308594 347.761719 L 309.535156 344.894531 Z M 319.003906 355.546875 L 315.777344 358.417969 L 325.246094 369.070312 L 328.472656 366.203125 Z M 281.128906 312.929688 L 277.898438 315.796875 L 287.367188 326.453125 L 290.597656 323.582031 Z M 258.960938 294.488281 L 268.429688 305.144531 L 271.65625 302.273438 L 262.1875 291.621094 Z M 202.144531 230.558594 L 211.613281 241.214844 L 214.84375 238.347656 L 205.375 227.691406 Z M 25.460938 25.253906 L 15.992188 14.601562 L 12.761719 17.46875 L 22.234375 28.121094 Z M 145.332031 166.632812 L 154.800781 177.285156 L 158.027344 174.417969 L 148.558594 163.765625 Z M 517.855469 579.292969 L 508.386719 568.640625 L 505.160156 571.507812 L 514.628906 582.164062 Z M 164.269531 187.941406 L 173.738281 198.597656 L 176.964844 195.726562 L 167.496094 185.074219 Z M 574.671875 643.222656 L 565.203125 632.566406 L 561.972656 635.4375 L 571.445312 646.089844 Z M 593.609375 664.53125 L 584.136719 653.878906 L 580.910156 656.746094 L 590.378906 667.398438 Z M 221.085938 251.871094 L 230.554688 262.523438 L 233.78125 259.65625 L 224.3125 249 Z M 555.730469 621.914062 L 546.261719 611.257812 L 543.035156 614.125 L 552.503906 624.78125 Z M 536.792969 600.605469 L 527.324219 589.949219 L 524.097656 592.816406 L 533.566406 603.472656 Z M 498.917969 557.984375 L 489.449219 547.332031 L 486.21875 550.203125 L 495.691406 560.855469 Z M 3.296875 6.816406 L 6.523438 3.945312 L 3.015625 0 L 0.125 0 L 0.125 3.25 Z M 294.441406 597.863281 L 284.84375 587.066406 L 281.617188 589.933594 L 291.214844 600.734375 Z M 275.246094 576.265625 L 265.648438 565.46875 L 262.421875 568.335938 L 272.019531 579.136719 Z M 332.832031 641.058594 L 323.234375 630.261719 L 320.007812 633.132812 L 329.601562 643.929688 Z M 256.050781 554.667969 L 246.457031 543.871094 L 243.226562 546.738281 L 252.824219 557.539062 Z M 313.636719 619.460938 L 304.039062 608.664062 L 300.8125 611.53125 L 310.410156 622.332031 Z M 16.121094 284.695312 L 12.894531 287.566406 L 22.488281 298.363281 L 25.71875 295.496094 Z M 227.261719 522.273438 L 224.035156 525.144531 L 233.628906 535.941406 L 236.859375 533.070312 Z M 35.316406 306.296875 L 32.085938 309.164062 L 41.683594 319.960938 L 44.910156 317.09375 Z M 467.195312 792.246094 L 457.597656 781.445312 L 454.367188 784.316406 L 463.964844 795.113281 Z M 360 678.132812 L 367.992188 687.125 L 371.21875 684.253906 L 361.625 673.457031 L 358.394531 676.328125 L 359.417969 677.476562 L 356.839844 675.1875 L 347.371094 685.839844 L 350.597656 688.710938 Z M 352.023438 662.65625 L 342.429688 651.859375 L 339.199219 654.726562 L 348.796875 665.527344 Z M 390.414062 705.851562 L 380.816406 695.054688 L 377.589844 697.921875 L 387.1875 708.722656 Z M 208.066406 500.675781 L 204.839844 503.546875 L 214.4375 514.34375 L 217.664062 511.472656 Z M 448 770.644531 L 438.402344 759.847656 L 435.175781 762.714844 L 444.773438 773.515625 Z M 409.609375 727.449219 L 400.011719 716.652344 L 396.785156 719.523438 L 406.382812 730.320312 Z M 428.804688 749.050781 L 419.207031 738.25 L 415.980469 741.121094 L 425.574219 751.917969 Z M 169.675781 457.480469 L 166.449219 460.347656 L 176.046875 471.144531 L 179.273438 468.277344 Z M 150.484375 435.882812 L 147.253906 438.75 L 156.851562 449.550781 L 160.078125 446.679688 Z M 188.871094 479.078125 L 185.644531 481.949219 L 195.242188 492.746094 L 198.46875 489.875 Z M 131.285156 414.28125 L 128.058594 417.152344 L 137.65625 427.953125 L 140.886719 425.082031 Z M 92.898438 371.089844 L 89.671875 373.957031 L 99.269531 384.757812 L 102.496094 381.886719 Z M 73.703125 349.492188 L 70.476562 352.359375 L 80.074219 363.160156 L 83.300781 360.289062 Z M 54.507812 327.890625 L 51.28125 330.761719 L 60.878906 341.5625 L 64.109375 338.691406 Z M 0.125 273.203125 L 3.296875 276.769531 L 6.523438 273.898438 L 3.015625 269.953125 L 6.523438 266.007812 L 3.296875 263.136719 L 0.125 266.703125 L 0.125 269.953125 L 0.128906 269.953125 L 0.125 269.953125 Z M 113.863281 671.132812 L 117.09375 668.261719 L 107.878906 657.894531 L 104.648438 660.761719 Z M 95.4375 650.394531 L 98.664062 647.527344 L 89.449219 637.160156 L 86.222656 640.027344 Z M 71.019531 616.425781 L 67.792969 619.296875 L 77.007812 629.660156 L 80.234375 626.789062 Z M 52.59375 595.691406 L 49.363281 598.558594 L 58.578125 608.925781 L 61.804688 606.058594 Z M 34.164062 574.953125 L 30.9375 577.824219 L 40.152344 588.191406 L 43.378906 585.320312 Z M 227.660156 792.675781 L 218.445312 782.308594 L 215.21875 785.175781 L 224.433594 795.542969 Z M 150.71875 712.601562 L 153.949219 709.734375 L 144.734375 699.367188 L 141.503906 702.234375 Z M 132.292969 691.867188 L 135.519531 688.996094 L 126.304688 678.628906 L 123.078125 681.5 Z M 24.949219 564.585938 L 15.738281 554.21875 L 12.507812 557.085938 L 21.722656 567.453125 Z M 209.230469 771.9375 L 200.015625 761.570312 L 196.789062 764.4375 L 206.003906 774.808594 Z M 190.804688 751.203125 L 181.589844 740.835938 L 178.363281 743.703125 L 187.578125 754.070312 Z M 172.375 730.46875 L 163.160156 720.101562 L 159.933594 722.972656 L 169.148438 733.335938 Z M 0.125 543.15625 L 3.296875 546.722656 L 6.523438 543.851562 L 3.015625 539.90625 L 6.523438 535.957031 L 3.296875 533.089844 L 0.125 536.65625 L 0.125 539.90625 L 0.128906 539.90625 L 0.125 539.90625 Z M 1436.460938 263.136719 L 1433.230469 266.007812 L 1436.738281 269.953125 L 1433.230469 273.898438 L 1436.460938 276.769531 L 1439.625 273.203125 L 1439.625 266.703125 Z M 1381.175781 200.933594 L 1377.945312 203.800781 L 1387.160156 214.167969 L 1390.386719 211.300781 Z M 1267.375 79.386719 L 1276.589844 89.757812 L 1279.816406 86.886719 L 1270.601562 76.519531 Z M 1418.03125 242.402344 L 1414.800781 245.269531 L 1424.015625 255.640625 L 1427.242188 252.769531 Z M 1344.316406 159.460938 L 1341.085938 162.332031 L 1350.304688 172.699219 L 1353.53125 169.828125 Z M 1405.585938 234.902344 L 1408.8125 232.035156 L 1399.601562 221.667969 L 1396.371094 224.535156 Z M 1368.730469 193.433594 L 1371.957031 190.566406 L 1362.746094 180.195312 L 1359.515625 183.066406 Z M 1224.53125 24.679688 L 1215.316406 14.3125 L 1212.089844 17.183594 L 1221.304688 27.550781 Z M 1230.519531 37.917969 L 1239.730469 48.285156 L 1242.960938 45.417969 L 1233.746094 35.050781 Z M 1307.457031 117.988281 L 1304.230469 120.859375 L 1313.449219 131.226562 L 1316.675781 128.355469 Z M 1248.949219 58.652344 L 1258.160156 69.019531 L 1261.390625 66.152344 L 1252.175781 55.785156 Z M 1298.246094 107.621094 L 1289.03125 97.257812 L 1285.804688 100.125 L 1295.019531 110.492188 Z M 1331.875 151.960938 L 1335.101562 149.09375 L 1325.886719 138.726562 L 1322.660156 141.59375 Z M 1331.875 151.960938 "/></g></svg>